<svg height="512" viewBox="0 0 64 64" width="512" xmlns="http://www.w3.org/2000/svg"><g id="flat"><path d="m61 31a82.68 82.68 0 0 0 -11-9l3-2-4-2c3-5 3-12 3-12a25.393 25.393 0 0 0 -12 3 37.839 37.839 0 0 0 -8-1 37.839 37.839 0 0 0 -8 1 25.393 25.393 0 0 0 -12-3s0 7 3 12l-4 2 3 2a82.68 82.68 0 0 0 -11 9l4 1a55.616 55.616 0 0 0 -4 8h4s0 3 6 11l8-1 11 8 11-8 8 1c6-8 6-11 6-11h4a55.616 55.616 0 0 0 -4-8z" fill="#e8e7d6"/><path d="m32.307 38h-.614a6.95 6.95 0 0 1 -5.693 3v3a6 6 0 0 0 6 6 6 6 0 0 0 6-6v-3a6.95 6.95 0 0 1 -5.693-3z" fill="#f98c96"/><path d="m32 47a1 1 0 0 1 -1-1v-8h2v8a1 1 0 0 1 -1 1z" fill="#db527d"/><path d="m38 42a8.159 8.159 0 0 1 -6-2.714 8.159 8.159 0 0 1 -6 2.714c-3.863 0-6-2.956-6-5h2c0 1.047 1.374 3 4 3 2.783 0 5-2.154 5-3h2c0 .846 2.217 3 5 3 2.626 0 4-1.953 4-3h2c0 2.044-2.137 5-6 5z" fill="#394d5c"/><path d="m36 31.8c0 1.546-1.791 4.2-4 4.2s-4-2.654-4-4.2 1.791-2.8 4-2.8 4 1.254 4 2.8z" fill="#143441"/><g fill="#fff"><path d="m7.045 40.022-.034-.017a.976.976 0 0 1 -.417-1.358 15.606 15.606 0 0 1 2.942-3.847.984.984 0 0 1 1.52.31l.015.029a1.006 1.006 0 0 1 -.266 1.206 14.239 14.239 0 0 0 -2.477 3.3.974.974 0 0 1 -1.283.377z"/><path d="m55.672 39.643a14.239 14.239 0 0 0 -2.477-3.3 1.006 1.006 0 0 1 -.266-1.206l.015-.029a.984.984 0 0 1 1.52-.31 15.606 15.606 0 0 1 2.942 3.845.976.976 0 0 1 -.417 1.358l-.034.017a.974.974 0 0 1 -1.283-.375z"/><path d="m20 15h-3v-2h1.612l-.56-1.684 1.9-.632 1 3a1 1 0 0 1 -.952 1.316z"/><path d="m48 15h-3a1 1 0 0 1 -.948-1.316l1-3 1.9.632-.564 1.684h1.612z"/></g><path d="m25 28a2 2 0 1 1 2-2 2 2 0 0 1 -2 2z" fill="#143441"/><path d="m39 28a2 2 0 1 1 2-2 2 2 0 0 1 -2 2z" fill="#143441"/></g></svg>